<?xml version="1.0" encoding="iso-8859-1"?>
<!-- Uploaded to: SVG Repo, www.svgrepo.com, Generator: SVG Repo Mixer Tools -->
<svg fill="#000000" height="800px" width="800px" version="1.1" id="Layer_1" xmlns="http://www.w3.org/2000/svg" xmlns:xlink="http://www.w3.org/1999/xlink" 
	 viewBox="0 0 512 512" xml:space="preserve">
<g>
	<g>
		<path d="M509.498,104.944c-3.336-3.336-8.745-3.336-12.079,0l-84.288,84.288c-4.816,4.816-12.652,4.816-17.47,0
			c-4.817-4.817-4.817-12.653,0-17.47l84.288-84.288c3.336-3.336,3.336-8.745,0-12.079c-3.335-3.337-8.744-3.336-12.079,0
			l-84.288,84.288c-4.815,4.817-12.652,4.817-17.469,0c-4.817-4.816-4.817-12.652,0-17.469L450.4,57.926
			c3.336-3.336,3.336-8.745,0-12.079c-3.336-3.336-8.745-3.336-12.079,0l-84.288,84.288c-4.816,4.816-12.652,4.816-17.47,0
			c-4.817-4.816-4.817-12.653,0-17.47l84.288-84.288c3.336-3.336,3.336-8.745,0-12.079c-3.335-3.336-8.744-3.336-12.079,0
			L302.954,122.116c-22.8,22.8-26.865,57.332-12.226,84.335l-91.457,91.458l-3.235-3.235c-3.214-3.214-8.384-3.348-11.76-0.304
			l-133.3,120.2c-9.382,7.997-15.053,19.638-15.563,31.96c-0.513,12.369,4.215,24.483,12.969,33.237
			c8.324,8.324,19.685,13.006,31.415,13.006c0.605,0,1.214-0.013,1.821-0.038c12.322-0.51,23.964-6.181,31.961-15.564
			l120.202-133.298c3.044-3.376,2.911-8.545-0.304-11.76l-3.234-3.234l76.503-76.503c3.336-3.336,3.336-8.745,0-12.079
			c-3.336-3.336-8.745-3.336-12.079,0l-76.503,76.503l-6.812-6.812l89.431-89.43c0.707,0.772,1.426,1.539,2.173,2.286
			c13.886,13.886,32.125,20.829,50.364,20.829c18.24,0,36.478-6.943,50.364-20.829L509.5,117.025
			C512.834,113.689,512.834,108.28,509.498,104.944z M215.658,338.459L100.806,465.826c-0.059,0.066-0.117,0.132-0.174,0.199
			c-4.995,5.898-12,9.323-19.721,9.642c-7.726,0.315-14.985-2.515-20.45-7.979c-5.465-5.466-8.299-12.729-7.979-20.45
			c0.32-7.723,3.745-14.726,9.642-19.722c0.067-0.057,0.134-0.115,0.199-0.174L189.688,312.49L215.658,338.459z M391.6,210.761
			c-21.11,21.111-55.459,21.112-76.568,0.002s-21.11-55.459,0-76.568l2.643-2.643c1.424,3.893,3.688,7.544,6.806,10.663
			c5.739,5.739,13.276,8.608,20.815,8.608c0.043,0,0.087-0.002,0.13-0.003c-0.033,7.581,2.834,15.173,8.604,20.944
			c5.739,5.739,13.276,8.608,20.814,8.608c0.043,0,0.087-0.002,0.13-0.003c-0.033,7.581,2.834,15.174,8.606,20.945
			c3.118,3.118,6.771,5.383,10.664,6.806L391.6,210.761z"/>
	</g>
</g>
<g>
	<g>
		<path d="M254.632,217.589L128.014,90.972c-24.36-24.36-58.089-38.331-92.539-38.331c-4.709,0-9.529,0.265-14.336,0.79
			c-9.147,1.013-16.724,7.035-19.774,15.716C-1.686,77.83,0.46,87.27,6.967,93.785l46.452,46.452
			c3.336,3.335,8.745,3.335,12.079-0.001c3.336-3.336,3.336-8.745,0-12.079L19.051,81.709c-2.665-2.668-1.984-5.714-1.567-6.9
			c0.416-1.185,1.788-3.984,5.523-4.397c4.181-0.457,8.376-0.688,12.469-0.688c29.954,0,59.28,12.148,80.46,33.328l126.617,126.616
			c1.667,1.667,3.854,2.502,6.04,2.502c2.186,0,4.372-0.834,6.04-2.502C257.967,226.333,257.967,220.924,254.632,217.589z"/>
	</g>
</g>
<g>
	<g>
		<path d="M204.73,267.39L82.841,145.5c-3.335-3.336-8.743-3.336-12.079,0c-3.336,3.336-3.336,8.745,0,12.079L192.65,279.469
			c1.667,1.667,3.854,2.502,6.04,2.502c2.186,0,4.372-0.834,6.04-2.502C208.066,276.133,208.066,270.724,204.73,267.39z"/>
	</g>
</g>
<g>
	<g>
		<path d="M442.332,451.959c-0.513-12.329-6.191-23.978-15.587-31.976l-26.672-23.744c-3.523-3.135-8.921-2.823-12.06,0.7
			c-3.137,3.524-2.823,8.922,0.7,12.06l26.746,23.81c0.052,0.047,0.106,0.093,0.159,0.139c5.897,4.994,9.322,11.999,9.641,19.72
			c0.32,7.723-2.514,14.986-7.979,20.452c-5.466,5.465-12.735,8.298-20.45,7.979c-7.722-0.319-14.726-3.744-19.721-9.642
			c-0.046-0.054-0.091-0.107-0.138-0.159L276.064,357.947l26.044-26.044l68.424,60.912c3.523,3.137,8.922,2.825,12.06-0.7
			c3.137-3.524,2.823-8.922-0.7-12.06l-74.444-66.271c-3.379-3.009-8.519-2.86-11.719,0.341l-3.234,3.234l-12.377-12.37
			c-3.337-3.336-8.746-3.334-12.079,0.003c-3.335,3.337-3.334,8.746,0.003,12.079l12.371,12.364l-6.812,6.812l-12.374-12.366
			c-3.337-3.336-8.746-3.334-12.079,0.003c-3.335,3.337-3.334,8.746,0.003,12.079l12.373,12.365l-3.235,3.234
			c-3.2,3.2-3.348,8.339-0.341,11.719l106.2,119.297c7.999,9.396,19.649,15.076,31.981,15.586c0.608,0.025,1.214,0.038,1.821,0.038
			c11.73,0,23.092-4.683,31.415-13.006C438.117,476.444,442.844,464.329,442.332,451.959z"/>
	</g>
</g>
</svg>